<svg xmlns="http://www.w3.org/2000/svg" width="152" height="152" viewBox="0 0 152 152" fill="none">
<g clip-path="url(#clip0_33202_1429)">
<path d="M133 152H19C8.55 152 0 143.45 0 133V19C0 8.55 8.55 0 19 0H133C143.45 0 152 8.55 152 19V133C152 143.45 143.45 152 133 152Z" fill="#FFE17F"/>
<path d="M120.649 15.2012V127.301H94.0494V119.701C88.3494 125.401 79.7994 129.201 67.4494 129.201C44.6494 129.201 25.6494 111.151 25.6494 87.4012C25.6494 63.6512 44.6494 45.6012 67.4494 45.6012C78.8494 45.6012 88.3494 49.4012 94.0494 55.1012V15.2012H120.649ZM94.0494 87.4012C94.0494 75.0512 85.4994 67.4512 73.1494 67.4512C60.7994 67.4512 52.2494 75.0512 52.2494 87.4012C52.2494 99.7512 60.7994 107.351 73.1494 107.351C85.4994 106.401 94.0494 98.8012 94.0494 87.4012Z" fill="#444444"/>
</g>
<defs>
<clipPath id="clip0_33202_1429">
<rect width="152" height="152" fill="white"/>
</clipPath>
</defs>
</svg>
