<svg xmlns="http://www.w3.org/2000/svg" width="32" height="32" viewBox="0 0 32 32" fill="none">
<g clip-path="url(#clip0_33204_1432)">
<path d="M28 32H4C1.8 32 0 30.2 0 28V4C0 1.8 1.8 0 4 0H28C30.2 0 32 1.8 32 4V28C32 30.2 30.2 32 28 32Z" fill="#FFE17F"/>
<path d="M25.3999 3.2002V26.8002H19.7999V25.2002C18.5999 26.4002 16.7999 27.2002 14.1999 27.2002C9.3999 27.2002 5.3999 23.4002 5.3999 18.4002C5.3999 13.4002 9.3999 9.6002 14.1999 9.6002C16.5999 9.6002 18.5999 10.4002 19.7999 11.6002V3.2002H25.3999ZM19.7999 18.4002C19.7999 15.8002 17.9999 14.2002 15.3999 14.2002C12.7999 14.2002 10.9999 15.8002 10.9999 18.4002C10.9999 21.0002 12.7999 22.6002 15.3999 22.6002C17.9999 22.4002 19.7999 20.8002 19.7999 18.4002Z" fill="#444444"/>
</g>
<defs>
<clipPath id="clip0_33204_1432">
<rect width="32" height="32" fill="white"/>
</clipPath>
</defs>
</svg>
