<svg width="4" height="8" viewBox="0 0 4 8" fill="none" xmlns="http://www.w3.org/2000/svg">
<g opacity="0.2" clip-path="url(#clip0_11376_903)">
<path d="M3.8 3.59995L0.800002 0.599951C0.600002 0.399951 0.300002 0.399951 0.100002 0.599951C1.52737e-06 0.799951 1.52737e-06 1.19995 0.100002 1.39995L2.7 3.99995L0.100002 6.59995C1.52737e-06 6.79995 1.52737e-06 7.09995 0.100002 7.29995C0.200002 7.39995 0.400002 7.49995 0.500002 7.49995C0.600002 7.49995 0.800002 7.39995 0.900002 7.39995L3.9 4.39995C3.9 4.29995 4 4.09995 4 3.99995C4 3.89995 3.9 3.69995 3.8 3.59995Z" fill="black"/>
</g>
<defs>
<clipPath id="clip0_11376_903">
<rect width="4" height="7" fill="white" transform="translate(0 0.5)"/>
</clipPath>
</defs>
</svg>
